<?xml version="1.0" encoding="utf-8"?>
<!-- Generator: Adobe Illustrator 23.0.4, SVG Export Plug-In . SVG Version: 6.00 Build 0)  -->
<svg class="logo--red-tech" width="195" height="36" viewBox="0 0 195 36" version="1.1" xmlns="http://www.w3.org/2000/svg" aria-labelledby="svg-logo--red-tech--title svg-logo--red-tech--description" focusable="false" role="img">
  <title id="svg-logo--red-tech--title">Red Technologies Logo</title>
  <desc id="svg-logo--red-tech--description">The Red Technologies Logo in SVG form</desc>
  <style>.red-tech-logo-mark{fill:#db3534}.red-tech-logo-text{fill:#000}</style>
  <path class="red-tech-logo-mark" d="M41.7819 35.8687h-6.5536L20.1878 20.8402h6.5536L41.782 35.8687zM36.177 2.8243A9.1497 9.1497 0 0029.52 0H4.9505A2.3174 2.3174 0 003.3056 3.948l7.6336 7.6415 6.5317-.012-6.9295-6.9453H29.518a4.6024 4.6024 0 014.6184 4.6302 4.5746 4.5746 0 01-1.3406 3.2679 4.6303 4.6303 0 01-3.2758 1.3565l-24.8818-.004a4.6303 4.6303 0 00-3.2778 7.908l14.0798 14.0778h6.5417L4.6382 18.5131l24.8818.012a9.2486 9.2486 0 006.5418-2.7089 9.2511 9.2511 0 002.7091-6.5417 9.129 9.129 0 00-2.5939-6.4502zm-14.8415 24.132h-3.2758l-6.116-6.116h3.2638l6.128 6.116zm8.8965 8.9124h-3.2718l-6.116-6.116h3.2659l6.122 6.116z"></path>
  <g class="red-tech-logo-text">
    <path d="M59.563 17.3576h-4.0295l-2.524-4.9724h-1.633v4.9724h-3.9878V2.51h8.6997c1.9512 0 2.884.9328 2.884 2.884v3.8605c0 1.633-.6564 2.5458-2.0148 2.8203l2.6055 5.2827zm-4.9723-8.103c.2964 0 .3819-.0855.3819-.3819V6.116c0-.2983-.0855-.3819-.3819-.3819h-3.2141v3.5205h3.2141zM61.1244 2.51h10.436v3.3077h-6.4481v2.3131h5.1116v3.2659h-5.1116v2.6513h6.4481v3.3096h-10.436zM80.0533 2.504h-6.7625v14.8556h6.7625c2.734-.0011 4.9503-2.2166 4.9524-4.9505V7.4566c-.0021-2.7343-2.2182-4.9503-4.9524-4.9525zm.9726 9.7817c-.0033.9752-.793 1.765-1.7682 1.7682h-1.9631V5.8117h1.963c.9753.0033 1.765.793 1.7683 1.7682v4.7058zM50.1892 24.4104h-3.7134v-3.3971h11.4186v3.397H54.179v11.4584h-3.9898zM59.4298 21.0133h10.442v3.3116h-6.4521v2.3131h5.1155v3.2679h-5.1155v2.6532h6.4521v3.3096h-10.442zM71.5227 32.9828v-9.0816c0-1.9531.9765-2.888 2.9277-2.888h5.6665c1.9532 0 2.8442.9349 2.8442 2.888v2.7845h-3.9898v-1.973c0-.2963-.0856-.3819-.382-.3819h-2.695c-.2983 0-.3818.0856-.3818.382v7.4704c0 .2964.0835.3819.3819.3819h2.695c.2963 0 .3819-.0855.3819-.3819v-1.973h3.9898v2.7845c0 1.9531-.9348 2.886-2.886 2.886h-5.6665c-1.9531-.012-2.886-.9448-2.886-2.898zM84.6617 21.0133h3.9898v5.569h4.2643v-5.569h3.9898v14.8554h-3.9898v-5.8992h-4.2643v5.8992h-3.9898zM98.9065 21.0133h3.978l4.859 7.896v-7.896h3.8625v14.8554h-3.5523l-5.2846-8.5087v8.5087h-3.8626zM113.4935 32.9828v-9.0816c0-1.9531.9328-2.888 2.886-2.888h5.9668c1.9531 0 2.886.9349 2.886 2.888v9.0816c0 1.9531-.9329 2.886-2.886 2.886h-5.9669c-1.9531 0-2.886-.9329-2.886-2.886zm7.3591-.4237c.2983 0 .3819-.0855.3819-.3819v-7.4705c0-.2963-.0836-.3818-.3819-.3818h-2.9834c-.2984 0-.382.0855-.382.3818v7.4705c0 .2964.0836.382.382.382h2.9834zM127.1238 21.0133h3.9898v11.4603h5.925v3.3951h-9.9148zM138.5145 32.9828v-9.0816c0-1.9531.9328-2.888 2.886-2.888h5.9668c1.9531 0 2.886.9349 2.886 2.888v9.0816c0 1.9531-.9329 2.886-2.886 2.886h-5.9669c-1.9531 0-2.886-.9329-2.886-2.886zm7.359-.4237c.2964 0 .382-.0855.382-.3819v-7.4705c0-.2963-.0856-.3818-.382-.3818h-2.9833c-.2984 0-.3839.0855-.3839.3818v7.4705c0 .2964.0855.382.3839.382h2.9834zM152.0354 32.9828v-9.0816c0-1.9531.9348-2.888 2.888-2.888h5.8554c1.9531 0 2.888.9349 2.888 2.888v2.0148h-3.954v-1.253c0-.2984-.0856-.3819-.382-.3819h-2.9237c-.2964 0-.382.0835-.382.3819v7.558c0 .2983.0856.3819.382.3819h2.9297c.2963 0 .3819-.0836.3819-.382v-1.8695h-2.1938v-3.1406h6.1339v5.768c0 1.9531-.9348 2.886-2.888 2.886h-5.8475c-1.9531.004-2.888-.9289-2.888-2.882zM165.5105 21.0133h3.9898v14.8554h-3.9898zM171.4575 21.0133h10.442v3.3116h-6.4522v2.3131h5.1156v3.2679h-5.1156v2.6532h6.4521v3.3096h-10.442zM183.437 32.9828V30.946h3.9897v1.3584c0 .2964.0836.382.382.382h2.7327c.2964 0 .382-.0856.382-.382v-1.2948c0-.2327-.1055-.2963-.4456-.3819l-3.948-1.082c-2.0785-.5728-3.0551-.9348-3.0551-3.057v-2.5856c0-1.9531.9328-2.888 2.886-2.888h5.4119c1.9531 0 2.886.9349 2.886 2.888v1.8875h-3.9859v-1.2093c0-.2963-.0855-.3818-.3819-.3818h-2.4404c-.2964 0-.3819.0855-.3819.3818v1.1457c0 .2347.0637.2983.4455.3978l3.9481 1.06c2.0785.553 3.055.9349 3.055 3.057v2.7369c0 1.9531-.9328 2.886-2.886 2.886h-5.7082c-1.9472.004-2.886-.9289-2.886-2.882z"></path>
  </g>
</svg>
