<?xml version="1.0" standalone="no"?>
<!DOCTYPE svg PUBLIC "-//W3C//DTD SVG 20010904//EN"
 "http://www.w3.org/TR/2001/REC-SVG-20010904/DTD/svg10.dtd">
<svg version="1.0" xmlns="http://www.w3.org/2000/svg"
 width="296.000000pt" height="260.000000pt" viewBox="0 0 296.000000 260.000000"
 preserveAspectRatio="xMidYMid meet">
<style xmlns="http://www.w3.org/2000/svg">path{fill:#db3534}</style>
<g transform="translate(0.000000,260.000000) scale(0.100000,-0.100000)"
fill="#000000" stroke="none">
<path d="M310 2512 c-84 -38 -123 -137 -85 -215 8 -18 136 -153 284 -301 l269
-269 213 2 c118 1 215 4 217 6 2 2 -94 103 -215 225 -120 122 -219 228 -221
236 -3 13 88 14 685 12 l688 -3 55 -26 c100 -47 168 -134 191 -246 11 -53 10
-70 -4 -123 -30 -105 -92 -180 -186 -224 -45 -21 -57 -21 -991 -26 l-945 -5
-57 -28 c-66 -33 -121 -89 -154 -161 -18 -39 -24 -68 -24 -126 0 -137 -13
-121 558 -692 l507 -508 220 0 220 0 -595 595 c-395 395 -589 596 -580 599 8
3 422 7 920 9 883 3 906 3 965 23 248 85 407 263 451 504 50 271 -83 546 -323
673 -149 78 -49 71 -1103 74 -520 1 -952 -1 -960 -5z"/>
<path d="M1070 865 l205 -205 102 0 c57 0 103 3 103 8 0 4 -89 96 -198 205
l-197 197 -110 0 -110 0 205 -205z"/>
<path d="M1450 1063 c0 -4 228 -236 508 -515 l507 -508 225 0 225 0 -517 515
-517 515 -216 0 c-118 0 -215 -3 -215 -7z"/>
<path d="M1495 450 c-2 -3 87 -97 199 -209 l202 -202 102 3 102 3 -89 90 c-48
50 -142 143 -208 208 l-120 117 -92 -2 c-51 -1 -94 -4 -96 -8z"/>
</g>
</svg>
